<?xml version="1.0" standalone="no"?>
<!DOCTYPE svg PUBLIC "-//W3C//DTD SVG 20010904//EN"
 "http://www.w3.org/TR/2001/REC-SVG-20010904/DTD/svg10.dtd">
<svg version="1.0" xmlns="http://www.w3.org/2000/svg"
 width="325.000000pt" height="325.000000pt" viewBox="0 0 325.000000 325.000000"
 preserveAspectRatio="xMidYMid meet">

<g transform="translate(0.000000,325.000000) scale(0.100000,-0.100000)"
fill="#000000" stroke="none">
<path d="M1445 3194 c-16 -3 -74 -14 -127 -25 -613 -123 -1093 -599 -1228
-1216 -93 -427 2 -887 258 -1248 73 -103 264 -294 367 -367 356 -252 812 -349
1235 -262 546 113 1004 517 1178 1039 64 193 77 279 77 510 -1 178 -4 225 -23
311 -136 628 -607 1100 -1230 1235 -74 16 -142 21 -287 24 -104 2 -203 1 -220
-1z m320 -74 c521 -49 979 -359 1210 -819 184 -368 211 -792 75 -1176 -183
-513 -614 -880 -1155 -981 -133 -25 -390 -25 -525 -1 -306 56 -571 196 -796
421 -225 225 -365 490 -421 796 -24 135 -24 392 1 525 39 211 114 395 230 570
253 377 649 616 1102 664 115 12 156 12 279 1z"/>
<path d="M1460 3065 c-8 -2 -49 -9 -90 -15 -106 -17 -248 -64 -365 -120 -427
-206 -716 -591 -802 -1065 -25 -137 -22 -371 5 -513 58 -290 193 -543 402
-752 209 -209 462 -344 752 -402 146 -28 387 -30 523 -4 543 103 971 481 1133
996 49 157 57 218 57 435 0 219 -11 293 -66 459 -72 217 -180 388 -353 562
-211 210 -438 335 -726 399 -68 15 -426 31 -470 20z m436 -144 c41 -25 76 -72
114 -153 l31 -66 42 10 c143 33 322 -36 379 -146 66 -127 -32 -313 -235 -445
l-67 -43 32 -47 c34 -51 75 -91 398 -394 124 -115 238 -222 254 -237 l28 -28
-12 -73 c-87 -526 -500 -935 -1037 -1026 l-92 -15 -40 31 c-117 93 -275 301
-346 455 -20 42 -67 168 -104 279 -76 227 -87 252 -138 308 -63 70 -117 90
-267 100 -72 4 -146 13 -163 18 -111 33 -168 148 -143 289 16 97 49 161 144
281 46 58 113 152 149 207 36 56 81 115 101 130 33 27 36 33 36 84 1 116 71
250 195 376 83 83 131 106 170 80 34 -22 41 -59 22 -108 l-16 -40 54 51 c65
61 113 86 149 77 49 -12 56 -59 21 -151 -4 -11 9 5 30 35 105 156 221 216 311
161z"/>
<path d="M1738 2851 c-52 -33 -118 -121 -172 -228 l-36 -73 -46 0 c-53 0 -53
-5 6 130 50 113 53 125 36 139 -43 36 -205 -127 -272 -274 -15 -32 -32 -55
-41 -55 -23 0 -9 56 48 194 28 65 49 126 47 135 -10 51 -100 -5 -191 -119 -81
-102 -111 -169 -116 -260 -3 -74 -3 -74 -50 -116 -26 -23 -70 -80 -98 -125
-29 -46 -91 -133 -138 -194 -98 -124 -130 -183 -143 -270 -20 -125 17 -212
102 -245 16 -6 89 -15 163 -19 121 -8 142 -13 198 -40 114 -56 151 -116 239
-384 36 -108 83 -235 105 -282 72 -154 187 -311 308 -419 l52 -47 90 16 c304
52 583 220 761 457 110 146 206 371 233 549 l5 37 -231 215 c-268 249 -409
391 -460 463 l-36 51 91 59 c156 101 248 222 248 327 0 81 -36 128 -130 171
-76 35 -149 42 -234 22 -38 -9 -70 -15 -71 -14 0 2 -10 23 -20 48 -27 65 -79
145 -106 164 -36 25 -89 20 -141 -13z m142 -47 c18 -21 41 -58 52 -83 41 -95
42 -87 -15 -120 -29 -16 -65 -40 -81 -53 -28 -24 -31 -24 -95 -12 -36 8 -87
13 -113 14 -27 0 -48 2 -48 5 0 18 75 149 110 194 78 98 137 115 190 55z
m-646 -81 c-41 -90 -62 -155 -69 -209 -7 -47 -10 -51 -58 -79 -29 -17 -58 -31
-64 -33 -31 -8 3 116 54 201 33 55 141 177 156 177 4 0 -5 -26 -19 -57z m243
25 c-3 -7 -22 -51 -42 -98 -46 -106 -54 -171 -30 -234 16 -43 17 -47 1 -71
-22 -33 -59 -47 -90 -35 -105 40 -57 232 102 403 43 45 70 61 59 35z m782
-125 c101 -32 161 -112 141 -184 -26 -90 -136 -207 -267 -284 -42 -24 -82 -46
-87 -48 -16 -5 81 -133 174 -230 47 -49 192 -189 324 -310 l238 -222 -6 -52
c-8 -70 -59 -221 -105 -314 -161 -322 -456 -544 -818 -618 l-96 -20 -40 31
c-51 40 -156 164 -213 250 -66 99 -118 218 -185 421 -33 100 -74 211 -92 246
-74 150 -199 221 -393 221 l-74 0 25 39 c65 98 28 264 -70 317 -19 10 -35 21
-35 24 0 3 30 43 66 88 36 46 94 128 129 181 74 114 143 180 258 245 l82 46 6
-53 c10 -92 43 -127 120 -127 58 0 94 26 110 79 10 32 9 44 -5 71 -9 18 -16
45 -16 60 0 26 3 28 61 34 69 8 159 1 262 -20 l69 -14 39 34 c82 70 214 124
305 125 23 1 65 -6 93 -16z"/>
<path d="M1250 2075 c-47 -50 -23 -175 34 -175 64 0 89 127 35 181 -25 25 -41
24 -69 -6z"/>
</g>
</svg>
